<?xml version="1.0" encoding="UTF-8" standalone="no"?><svg xmlns="http://www.w3.org/2000/svg" xmlns:xlink="http://www.w3.org/1999/xlink" contentStyleType="text/css" height="290px" preserveAspectRatio="none" style="width:322px;height:290px;background:#FFFFFF;" version="1.1" viewBox="0 0 322 290" width="322px" zoomAndPan="magnify"><defs/><g><ellipse cx="133.25" cy="20" fill="#222222" rx="10" ry="10" style="stroke:#222222;stroke-width:1.0;"/><polygon fill="#F1F1F1" points="84.25,94,182.25,94,194.25,106,182.25,118,84.25,118,72.25,106,84.25,94" style="stroke:#181818;stroke-width:0.5;"/><text fill="#000000" font-family="sans-serif" font-size="11" lengthAdjust="spacing" textLength="98" x="84.25" y="110.501">是否在列表date里？</text><text fill="#000000" font-family="sans-serif" font-size="11" lengthAdjust="spacing" textLength="11" x="61.25" y="103.583">是</text><text fill="#000000" font-family="sans-serif" font-size="11" lengthAdjust="spacing" textLength="11" x="194.25" y="103.583">否</text><rect fill="#F1F1F1" height="35.0938" rx="12.5" ry="12.5" style="stroke:#181818;stroke-width:0.5;" width="99" x="11" y="128"/><text fill="#000000" font-family="sans-serif" font-size="12" lengthAdjust="spacing" textLength="79" x="21" y="150.457">将对应数据加1</text><rect fill="#F1F1F1" height="35.0938" rx="12.5" ry="12.5" style="stroke:#181818;stroke-width:0.5;" width="152" x="130" y="128"/><text fill="#000000" font-family="sans-serif" font-size="12" lengthAdjust="spacing" textLength="132" x="140" y="150.457">添加到列表里，添加数据</text><polygon fill="#F1F1F1" points="133.25,169.0938,145.25,181.0938,133.25,193.0938,121.25,181.0938,133.25,169.0938" style="stroke:#181818;stroke-width:0.5;"/><polygon fill="#F1F1F1" points="133.25,50,145.25,62,133.25,74,121.25,62,133.25,50" style="stroke:#181818;stroke-width:0.5;"/><polygon fill="#F1F1F1" points="133.25,213.0938,133.25,213.0938,145.25,225.0938,133.25,237.0938,133.25,237.0938,121.25,225.0938,133.25,213.0938" style="stroke:#181818;stroke-width:0.5;"/><ellipse cx="133.25" cy="268.0938" rx="11" ry="11" style="stroke:#222222;stroke-width:1.0;fill:none;"/><ellipse cx="133.25" cy="268.0938" fill="#222222" rx="6" ry="6" style="stroke:#111111;stroke-width:1.0;"/><line style="stroke:#181818;stroke-width:1.0;" x1="72.25" x2="60.5" y1="106" y2="106"/><line style="stroke:#181818;stroke-width:1.0;" x1="60.5" x2="60.5" y1="106" y2="128"/><polygon fill="#181818" points="56.5,118,60.5,128,64.5,118,60.5,122" style="stroke:#181818;stroke-width:1.0;"/><line style="stroke:#181818;stroke-width:1.0;" x1="194.25" x2="206" y1="106" y2="106"/><line style="stroke:#181818;stroke-width:1.0;" x1="206" x2="206" y1="106" y2="128"/><polygon fill="#181818" points="202,118,206,128,210,118,206,122" style="stroke:#181818;stroke-width:1.0;"/><line style="stroke:#181818;stroke-width:1.0;" x1="60.5" x2="60.5" y1="163.0938" y2="181.0938"/><line style="stroke:#181818;stroke-width:1.0;" x1="60.5" x2="121.25" y1="181.0938" y2="181.0938"/><polygon fill="#181818" points="111.25,177.0938,121.25,181.0938,111.25,185.0938,115.25,181.0938" style="stroke:#181818;stroke-width:1.0;"/><line style="stroke:#181818;stroke-width:1.0;" x1="206" x2="206" y1="163.0938" y2="181.0938"/><line style="stroke:#181818;stroke-width:1.0;" x1="206" x2="145.25" y1="181.0938" y2="181.0938"/><polygon fill="#181818" points="155.25,177.0938,145.25,181.0938,155.25,185.0938,151.25,181.0938" style="stroke:#181818;stroke-width:1.0;"/><line style="stroke:#181818;stroke-width:1.0;" x1="133.25" x2="133.25" y1="74" y2="94"/><polygon fill="#181818" points="129.25,84,133.25,94,137.25,84,133.25,88" style="stroke:#181818;stroke-width:1.0;"/><line style="stroke:#181818;stroke-width:1.0;" x1="145.25" x2="296" y1="225.0938" y2="225.0938"/><polygon fill="#181818" points="292,153.5469,296,143.5469,300,153.5469,296,149.5469" style="stroke:#181818;stroke-width:1.0;"/><line style="stroke:#181818;stroke-width:1.0;" x1="296" x2="296" y1="62" y2="225.0938"/><line style="stroke:#181818;stroke-width:1.0;" x1="296" x2="145.25" y1="62" y2="62"/><polygon fill="#181818" points="155.25,58,145.25,62,155.25,66,151.25,62" style="stroke:#181818;stroke-width:1.0;"/><line style="stroke:#181818;stroke-width:1.0;" x1="133.25" x2="133.25" y1="193.0938" y2="213.0938"/><polygon fill="#181818" points="129.25,203.0938,133.25,213.0938,137.25,203.0938,133.25,207.0938" style="stroke:#181818;stroke-width:1.0;"/><line style="stroke:#181818;stroke-width:1.0;" x1="133.25" x2="133.25" y1="30" y2="50"/><polygon fill="#181818" points="129.25,40,133.25,50,137.25,40,133.25,44" style="stroke:#181818;stroke-width:1.0;"/><line style="stroke:#181818;stroke-width:1.0;" x1="133.25" x2="133.25" y1="237.0938" y2="257.0938"/><polygon fill="#181818" points="129.25,247.0938,133.25,257.0938,137.25,247.0938,133.25,251.0938" style="stroke:#181818;stroke-width:1.0;"/><!--MD5=[6466e679db40465267b1350c05810322]
@startuml
start
repeat
if (是否在列表date里？) then (是)
:将对应数据加1;
else (否)
:添加到列表里，添加数据;
endif
repeat while
stop
@enduml

PlantUML version 1.2022.5(Sat Apr 30 18:55:52 CST 2022)
(GPL source distribution)
Java Runtime: Java(TM) SE Runtime Environment
JVM: Java HotSpot(TM) 64-Bit Server VM
Default Encoding: UTF-8
Language: zh
Country: CN
--></g></svg>