<?xml version="1.0" encoding="UTF-8"?>
<!-- Created by MetaPost 2.02 on 2022.06.14:1752 -->
<svg version="1.1" xmlns="http://www.w3.org/2000/svg" xmlns:xlink="http://www.w3.org/1999/xlink" viewBox="0 0 104.544434 74.508484" width="200" height="150">
<!-- Original BoundingBox: -9.571991 -8.907791 94.972443 65.600693 -->
  <defs>
    <g transform="scale(0.009963,0.009963)" id="GLYPHcmmi10_65">
      <path style="fill-rule: evenodd;" d="M179.000000 -115.000000C139.000000 -48.000000,100.000000 -34.000000,56.000000 -31.000000C44.000000 -30.000000,35.000000 -30.000000,35.000000 -11.000000C35.000000 -5.000000,40.000000 -0.000000,48.000000 -0.000000C75.000000 -0.000000,106.000000 -3.000000,134.000000 -3.000000C167.000000 -3.000000,202.000000 -0.000000,234.000000 -0.000000C240.000000 -0.000000,253.000000 -0.000000,253.000000 -19.000000C253.000000 -30.000000,244.000000 -31.000000,237.000000 -31.000000C214.000000 -33.000000,190.000000 -41.000000,190.000000 -66.000000C190.000000 -78.000000,196.000000 -89.000000,204.000000 -103.000000L280.000000 -231.000000L531.000000 -231.000000C533.000000 -210.000000,547.000000 -74.000000,547.000000 -64.000000C547.000000 -34.000000,495.000000 -31.000000,475.000000 -31.000000C461.000000 -31.000000,451.000000 -31.000000,451.000000 -11.000000C451.000000 -0.000000,463.000000 -0.000000,465.000000 -0.000000C506.000000 -0.000000,549.000000 -3.000000,590.000000 -3.000000C615.000000 -3.000000,678.000000 -0.000000,703.000000 -0.000000C709.000000 -0.000000,721.000000 -0.000000,721.000000 -20.000000C721.000000 -31.000000,711.000000 -31.000000,698.000000 -31.000000C636.000000 -31.000000,636.000000 -38.000000,633.000000 -67.000000L572.000000 -692.000000C570.000000 -712.000000,570.000000 -716.000000,553.000000 -716.000000C537.000000 -716.000000,533.000000 -709.000000,527.000000 -699.000000M299.000000 -262.000000L496.000000 -592.000000L528.000000 -262.000000"/>
    </g>
    <g transform="scale(0.009963,0.009963)" id="GLYPHcmmi10_66">
      <path style="fill-rule: evenodd;" d="M160.000000 -78.000000C150.000000 -39.000000,148.000000 -31.000000,69.000000 -31.000000C52.000000 -31.000000,42.000000 -31.000000,42.000000 -11.000000C42.000000 -0.000000,51.000000 -0.000000,69.000000 -0.000000L426.000000 -0.000000C584.000000 -0.000000,702.000000 -118.000000,702.000000 -216.000000C702.000000 -288.000000,644.000000 -346.000000,547.000000 -357.000000C651.000000 -376.000000,756.000000 -450.000000,756.000000 -545.000000C756.000000 -619.000000,690.000000 -683.000000,570.000000 -683.000000L234.000000 -683.000000C215.000000 -683.000000,205.000000 -683.000000,205.000000 -663.000000C205.000000 -652.000000,214.000000 -652.000000,233.000000 -652.000000C235.000000 -652.000000,254.000000 -652.000000,271.000000 -650.000000C289.000000 -648.000000,298.000000 -647.000000,298.000000 -634.000000C298.000000 -630.000000,297.000000 -627.000000,294.000000 -615.000000M311.000000 -366.000000L373.000000 -614.000000C382.000000 -649.000000,384.000000 -652.000000,427.000000 -652.000000L556.000000 -652.000000C644.000000 -652.000000,665.000000 -593.000000,665.000000 -549.000000C665.000000 -461.000000,579.000000 -366.000000,457.000000 -366.000000M266.000000 -31.000000C252.000000 -31.000000,250.000000 -31.000000,244.000000 -32.000000C234.000000 -33.000000,231.000000 -34.000000,231.000000 -42.000000C231.000000 -45.000000,231.000000 -47.000000,236.000000 -65.000000L305.000000 -344.000000L494.000000 -344.000000C590.000000 -344.000000,609.000000 -270.000000,609.000000 -227.000000C609.000000 -128.000000,520.000000 -31.000000,402.000000 -31.000000"/>
    </g>
    <g transform="scale(0.009963,0.009963)" id="GLYPHcmmi10_67">
      <path style="fill-rule: evenodd;" d="M760.000000 -695.000000C760.000000 -698.000000,758.000000 -705.000000,749.000000 -705.000000C746.000000 -705.000000,745.000000 -704.000000,734.000000 -693.000000L664.000000 -616.000000C655.000000 -630.000000,609.000000 -705.000000,498.000000 -705.000000C275.000000 -705.000000,50.000000 -484.000000,50.000000 -252.000000C50.000000 -87.000000,168.000000 22.000000,321.000000 22.000000C408.000000 22.000000,484.000000 -18.000000,537.000000 -64.000000C630.000000 -146.000000,647.000000 -237.000000,647.000000 -240.000000C647.000000 -250.000000,637.000000 -250.000000,635.000000 -250.000000C629.000000 -250.000000,624.000000 -248.000000,622.000000 -240.000000C613.000000 -211.000000,590.000000 -140.000000,521.000000 -82.000000C452.000000 -26.000000,389.000000 -9.000000,337.000000 -9.000000C247.000000 -9.000000,141.000000 -61.000000,141.000000 -217.000000C141.000000 -274.000000,162.000000 -436.000000,262.000000 -553.000000C323.000000 -624.000000,417.000000 -674.000000,506.000000 -674.000000C608.000000 -674.000000,667.000000 -597.000000,667.000000 -481.000000C667.000000 -441.000000,664.000000 -440.000000,664.000000 -430.000000C664.000000 -420.000000,675.000000 -420.000000,679.000000 -420.000000C692.000000 -420.000000,692.000000 -422.000000,697.000000 -440.000000"/>
    </g>
    <g transform="scale(0.009963,0.009963)" id="GLYPHcmmi10_68">
      <path style="fill-rule: evenodd;" d="M159.000000 -78.000000C149.000000 -39.000000,147.000000 -31.000000,68.000000 -31.000000C51.000000 -31.000000,40.000000 -31.000000,40.000000 -12.000000C40.000000 -0.000000,49.000000 -0.000000,68.000000 -0.000000L399.000000 -0.000000C607.000000 -0.000000,804.000000 -211.000000,804.000000 -430.000000C804.000000 -571.000000,719.000000 -683.000000,569.000000 -683.000000L233.000000 -683.000000C214.000000 -683.000000,203.000000 -683.000000,203.000000 -664.000000C203.000000 -652.000000,212.000000 -652.000000,232.000000 -652.000000C245.000000 -652.000000,263.000000 -651.000000,275.000000 -650.000000C291.000000 -648.000000,297.000000 -645.000000,297.000000 -634.000000C297.000000 -630.000000,296.000000 -627.000000,293.000000 -615.000000M375.000000 -614.000000C384.000000 -649.000000,386.000000 -652.000000,429.000000 -652.000000L536.000000 -652.000000C634.000000 -652.000000,717.000000 -599.000000,717.000000 -467.000000C717.000000 -418.000000,697.000000 -254.000000,612.000000 -144.000000C583.000000 -107.000000,504.000000 -31.000000,381.000000 -31.000000L268.000000 -31.000000C254.000000 -31.000000,252.000000 -31.000000,246.000000 -32.000000C236.000000 -33.000000,233.000000 -34.000000,233.000000 -42.000000C233.000000 -45.000000,233.000000 -47.000000,238.000000 -65.000000"/>
    </g>
    <g transform="scale(0.009963,0.009963)" id="GLYPHcmmi10_97">
      <path style="fill-rule: evenodd;" d="M373.000000 -378.000000C355.000000 -415.000000,326.000000 -442.000000,281.000000 -442.000000C164.000000 -442.000000,40.000000 -295.000000,40.000000 -149.000000C40.000000 -55.000000,95.000000 11.000000,173.000000 11.000000C193.000000 11.000000,243.000000 7.000000,303.000000 -64.000000C311.000000 -22.000000,346.000000 11.000000,394.000000 11.000000C429.000000 11.000000,452.000000 -12.000000,468.000000 -44.000000C485.000000 -80.000000,498.000000 -141.000000,498.000000 -143.000000C498.000000 -153.000000,489.000000 -153.000000,486.000000 -153.000000C476.000000 -153.000000,475.000000 -149.000000,472.000000 -135.000000C455.000000 -70.000000,437.000000 -11.000000,396.000000 -11.000000C369.000000 -11.000000,366.000000 -37.000000,366.000000 -57.000000C366.000000 -79.000000,368.000000 -87.000000,379.000000 -131.000000C390.000000 -173.000000,392.000000 -183.000000,401.000000 -221.000000L437.000000 -361.000000C444.000000 -389.000000,444.000000 -391.000000,444.000000 -395.000000C444.000000 -412.000000,432.000000 -422.000000,415.000000 -422.000000C391.000000 -422.000000,376.000000 -400.000000,373.000000 -378.000000M308.000000 -119.000000C303.000000 -101.000000,303.000000 -99.000000,288.000000 -82.000000C244.000000 -27.000000,203.000000 -11.000000,175.000000 -11.000000C125.000000 -11.000000,111.000000 -66.000000,111.000000 -105.000000C111.000000 -155.000000,143.000000 -278.000000,166.000000 -324.000000C197.000000 -383.000000,242.000000 -420.000000,282.000000 -420.000000C347.000000 -420.000000,361.000000 -338.000000,361.000000 -332.000000C361.000000 -326.000000,359.000000 -320.000000,358.000000 -315.000000"/>
    </g>
    <g transform="scale(0.009963,0.009963)" id="GLYPHcmmi10_98">
      <path style="fill-rule: evenodd;" d="M239.000000 -683.000000C239.000000 -684.000000,239.000000 -694.000000,226.000000 -694.000000C203.000000 -694.000000,130.000000 -686.000000,104.000000 -684.000000C96.000000 -683.000000,85.000000 -682.000000,85.000000 -664.000000C85.000000 -652.000000,94.000000 -652.000000,109.000000 -652.000000C157.000000 -652.000000,159.000000 -645.000000,159.000000 -635.000000C159.000000 -628.000000,150.000000 -594.000000,145.000000 -573.000000L63.000000 -247.000000C51.000000 -197.000000,47.000000 -181.000000,47.000000 -146.000000C47.000000 -51.000000,100.000000 11.000000,174.000000 11.000000C292.000000 11.000000,415.000000 -138.000000,415.000000 -282.000000C415.000000 -373.000000,362.000000 -442.000000,282.000000 -442.000000C236.000000 -442.000000,195.000000 -413.000000,165.000000 -382.000000M145.000000 -305.000000C151.000000 -327.000000,151.000000 -329.000000,160.000000 -340.000000C209.000000 -405.000000,254.000000 -420.000000,280.000000 -420.000000C316.000000 -420.000000,343.000000 -390.000000,343.000000 -326.000000C343.000000 -267.000000,310.000000 -152.000000,292.000000 -114.000000C259.000000 -47.000000,213.000000 -11.000000,174.000000 -11.000000C140.000000 -11.000000,107.000000 -38.000000,107.000000 -112.000000C107.000000 -131.000000,107.000000 -150.000000,123.000000 -213.000000"/>
    </g>
    <g transform="scale(0.009963,0.009963)" id="GLYPHcmmi10_126">
      <path style="fill-rule: evenodd;" d="M537.000000 -595.000000C523.000000 -582.000000,490.000000 -554.000000,490.000000 -536.000000C490.000000 -526.000000,500.000000 -516.000000,510.000000 -516.000000C519.000000 -516.000000,524.000000 -523.000000,529.000000 -529.000000C541.000000 -544.000000,564.000000 -572.000000,608.000000 -594.000000C615.000000 -598.000000,625.000000 -603.000000,625.000000 -615.000000C625.000000 -625.000000,618.000000 -630.000000,611.000000 -635.000000C589.000000 -650.000000,578.000000 -668.000000,570.000000 -692.000000C568.000000 -701.000000,564.000000 -714.000000,550.000000 -714.000000C536.000000 -714.000000,530.000000 -701.000000,530.000000 -693.000000C530.000000 -688.000000,538.000000 -656.000000,554.000000 -635.000000L217.000000 -635.000000C200.000000 -635.000000,182.000000 -635.000000,182.000000 -615.000000C182.000000 -595.000000,200.000000 -595.000000,217.000000 -595.000000"/>
    </g>
  </defs>
  <g transform="translate(-0.571991 73.907791)" style="fill: rgb(0.000000%,0.000000%,0.000000%);">
    <use xlink:href="#GLYPHcmmi10_65"/>
  </g>
  <path d="M9.000000 65.000000l0 0" style="stroke:rgb(0.000000%,0.000000%,0.000000%); stroke-width: 3.000000;stroke-linecap: round;stroke-linejoin: round;stroke-miterlimit: 10.000000;fill: none;"/>
  <g transform="translate(27.189865 6.207108)" style="fill: rgb(0.000000%,0.000000%,0.000000%);">
    <use xlink:href="#GLYPHcmmi10_66"/>
  </g>
  <path d="M37.346451 8.307098l0 0" style="stroke:rgb(0.000000%,0.000000%,0.000000%); stroke-width: 3.000000;stroke-linecap: round;stroke-linejoin: round;stroke-miterlimit: 10.000000;fill: none;"/>
  <g transform="translate(96.139343 6.207108)" style="fill: rgb(0.000000%,0.000000%,0.000000%);">
    <use xlink:href="#GLYPHcmmi10_67"/>
  </g>
  <path d="M94.039352 8.307098l0 0" style="stroke:rgb(0.000000%,0.000000%,0.000000%); stroke-width: 3.000000;stroke-linecap: round;stroke-linejoin: round;stroke-miterlimit: 10.000000;fill: none;"/>
  <g transform="translate(67.792892 73.907791)" style="fill: rgb(0.000000%,0.000000%,0.000000%);">
    <use xlink:href="#GLYPHcmmi10_68"/>
  </g>
  <path d="M65.692902 65.000000l0 0" style="stroke:rgb(0.000000%,0.000000%,0.000000%); stroke-width: 3.000000;stroke-linecap: round;stroke-linejoin: round;stroke-miterlimit: 10.000000;fill: none;"/>
  <path d="M9.000000 65.000000L37.346451 8.307098" style="stroke:rgb(0.000000%,0.000000%,0.000000%); stroke-width: 0.500000;stroke-linecap: round;stroke-linejoin: round;stroke-miterlimit: 10.000000;fill: none;"/>
  <path d="M37.062927 12.297272L37.346451 8.307098L34.324463 10.928040Z" style="stroke:rgb(0.000000%,0.000000%,0.000000%); stroke-width: 0.500000;fill: rgb(0.000000%,0.000000%,0.000000%);"/>
  <path d="M9.000000 65.000000L65.692902 65.000000" style="stroke:rgb(0.000000%,0.000000%,0.000000%); stroke-width: 0.500000;stroke-linecap: round;stroke-linejoin: round;stroke-miterlimit: 10.000000;fill: none;"/>
  <path d="M61.997330 66.530792L65.692902 65.000000L61.997330 63.469208Z" style="stroke:rgb(0.000000%,0.000000%,0.000000%); stroke-width: 0.500000;fill: rgb(0.000000%,0.000000%,0.000000%);"/>
  <path d="M37.346451 8.307098L94.039352 8.307098" style="stroke:rgb(0.000000%,0.000000%,0.000000%); stroke-width: 0.500000;stroke-linecap: round;stroke-dasharray: 3.000000 3.000000 ;stroke-linejoin: round;stroke-miterlimit: 10.000000;fill: none;"/>
  <path d="M94.039352 8.307098L65.692902 65.000000" style="stroke:rgb(0.000000%,0.000000%,0.000000%); stroke-width: 0.500000;stroke-linecap: round;stroke-dasharray: 3.000000 3.000000 ;stroke-linejoin: round;stroke-miterlimit: 10.000000;fill: none;"/>
  <path d="M9.000000 65.000000L94.039352 8.307098" style="stroke:rgb(100.000000%,0.000000%,0.000000%); stroke-width: 0.500000;stroke-linecap: round;stroke-linejoin: round;stroke-miterlimit: 10.000000;fill: none;"/>
  <path d="M91.813507 11.630783L94.039352 8.307098L90.115234 9.083328Z" style="stroke:rgb(100.000000%,0.000000%,0.000000%); stroke-width: 0.500000;fill: rgb(100.000000%,0.000000%,0.000000%);"/>
  <path d="M65.692902 65.000000L37.346451 8.307098" style="stroke:rgb(0.000000%,0.000000%,100.000000%); stroke-width: 0.500000;stroke-linecap: round;stroke-linejoin: round;stroke-miterlimit: 10.000000;fill: none;"/>
  <path d="M40.368439 10.928040L37.346451 8.307098L37.629974 12.297272Z" style="stroke:rgb(0.000000%,0.000000%,100.000000%); stroke-width: 0.500000;fill: rgb(0.000000%,0.000000%,100.000000%);"/>
  <g transform="translate(15.183350 34.553558)" style="fill: rgb(0.000000%,0.000000%,0.000000%);">
    <use xlink:href="#GLYPHcmmi10_126"/>
  </g>
  <g transform="translate(15.807144 34.553558)" style="fill: rgb(0.000000%,0.000000%,0.000000%);">
    <use xlink:href="#GLYPHcmmi10_97"/>
  </g>
  <g transform="translate(34.089554 59.371002)" style="fill: rgb(0.000000%,0.000000%,0.000000%);">
    <use xlink:href="#GLYPHcmmi10_126"/>
  </g>
  <g transform="translate(35.208649 62.000000)" style="fill: rgb(0.000000%,0.000000%,0.000000%);">
    <use xlink:href="#GLYPHcmmi10_98"/>
  </g>
</svg>