<?xml version="1.0" encoding="UTF-8" standalone="no"?>
<!DOCTYPE svg PUBLIC "-//W3C//DTD SVG 1.1//EN"
 "http://www.w3.org/Graphics/SVG/1.1/DTD/svg11.dtd">
<!-- Generated by graphviz version 3.0.0 (20220226.1711)
 -->
<!-- Pages: 1 -->
<svg width="140pt" height="126pt"
 viewBox="0.00 0.00 139.90 126.00" xmlns="http://www.w3.org/2000/svg" xmlns:xlink="http://www.w3.org/1999/xlink">
<g id="graph0" class="graph" transform="scale(1 1) rotate(0) translate(4 122)">
<polygon fill="white" stroke="transparent" points="-4,4 -4,-122 135.9,-122 135.9,4 -4,4"/>
<!-- b -->
<g id="node1" class="node">
<title>b</title>
<polygon fill="none" stroke="black" points="54,-41 0,-41 0,-5 54,-5 54,-41"/>
<text text-anchor="middle" x="27" y="-19.3" font-family="Times New Roman,serif" font-size="14.00">b</text>
</g>
<!-- c -->
<g id="node2" class="node">
<title>c</title>
<polygon fill="none" stroke="black" points="102,-46 72.2,-11.5 131.8,-11.5 102,-46"/>
<text text-anchor="middle" x="102" y="-19.3" font-family="Times New Roman,serif" font-size="14.00">c</text>
</g>
<!-- a -->
<g id="node3" class="node">
<title>a</title>
<ellipse fill="none" stroke="black" cx="64" cy="-100" rx="27" ry="18"/>
<text text-anchor="middle" x="64" y="-96.3" font-family="Times New Roman,serif" font-size="14.00">a</text>
</g>
<!-- a&#45;&#45;b -->
<g id="edge1" class="edge">
<title>a&#45;&#45;b</title>
<path fill="none" stroke="blue" d="M55.97,-82.73C49.89,-70.4 41.57,-53.52 35.4,-41.02"/>
</g>
<!-- a&#45;&#45;c -->
<g id="edge2" class="edge">
<title>a&#45;&#45;c</title>
<path fill="none" stroke="black" stroke-dasharray="1,5" d="M72.25,-82.73C78.97,-69.46 88.37,-50.9 94.8,-38.22"/>
</g>
</g>
</svg>